<svg width="20" height="21" viewBox="0 0 20 21" fill="none" xmlns="http://www.w3.org/2000/svg">
<path d="M17.0711 13.1086C15.9819 12.0195 14.6855 11.2132 13.2711 10.7251C14.786 9.68168 15.7812 7.93547 15.7812 5.96094C15.7812 2.77316 13.1878 0.179688 10 0.179688C6.81223 0.179688 4.21875 2.77316 4.21875 5.96094C4.21875 7.93547 5.21402 9.68168 6.72898 10.7251C5.31453 11.2132 4.01813 12.0195 2.92895 13.1086C1.0402 14.9974 0 17.5086 0 20.1797H1.5625C1.5625 15.5272 5.34754 11.7422 10 11.7422C14.6525 11.7422 18.4375 15.5272 18.4375 20.1797H20C20 17.5086 18.9598 14.9974 17.0711 13.1086ZM10 10.1797C7.67379 10.1797 5.78125 8.28719 5.78125 5.96094C5.78125 3.63469 7.67379 1.74219 10 1.74219C12.3262 1.74219 14.2188 3.63469 14.2188 5.96094C14.2188 8.28719 12.3262 10.1797 10 10.1797Z" fill="#FDD935"/>
</svg>
